<?xml version="1.0" standalone="no"?>
<!DOCTYPE svg PUBLIC "-//W3C//DTD SVG 20010904//EN"
 "http://www.w3.org/TR/2001/REC-SVG-20010904/DTD/svg10.dtd">
<svg version="1.0" xmlns="http://www.w3.org/2000/svg"
 width="1273.000000pt" height="1103.000000pt" viewBox="0 0 1273.000000 1103.000000"
 preserveAspectRatio="xMidYMid meet">
<metadata>
Created by potrace 1.16, written by Peter Selinger 2001-2019
</metadata>
<g transform="translate(0.000000,1103.000000) scale(0.100000,-0.100000)"
fill="#DE3163" stroke="none">
<path d="M1590 8283 c-872 -1510 -1586 -2753 -1588 -2762 -1 -9 712 -1253
1586 -2766 l1587 -2750 3190 -3 3190 -2 1588 2751 c1098 1901 1588 2758 1585
2773 -2 11 -717 1255 -1588 2764 l-1583 2742 -3191 0 -3191 -1 -1585 -2746z
m9206 -202 c812 -1405 1476 -2558 1477 -2561 1 -3 -662 -1157 -1473 -2563
l-1475 -2556 -2959 2 -2958 2 -1470 2545 c-808 1400 -1472 2550 -1475 2557 -3
7 660 1164 1473 2573 l1479 2560 2953 -2 2954 -3 1474 -2554z"/>
<path d="M6600 10531 c0 -5 13 -31 30 -58 l29 -48 -44 -295 c-47 -311 -55
-351 -87 -413 -11 -22 -17 -41 -14 -45 5 -4 163 -31 191 -32 6 0 11 50 12 128
1 84 11 187 30 307 l29 179 45 -79 c103 -178 166 -285 179 -299 14 -18 24 -9
238 191 l108 102 -18 -117 c-9 -64 -24 -163 -33 -219 -16 -105 -33 -175 -56
-230 -7 -18 -11 -35 -8 -37 7 -8 197 -31 203 -25 2 2 -1 28 -7 57 -9 44 -7 83
17 250 57 407 72 468 125 516 12 11 21 22 21 27 0 4 -38 12 -85 19 l-85 12
-169 -162 c-162 -155 -209 -196 -215 -189 -25 36 -195 335 -216 382 l-29 64
-83 11 c-100 14 -108 15 -108 3z"/>
<path d="M6008 10513 c-33 -5 -32 -1 -12 -69 12 -43 16 -118 17 -386 1 -183
-2 -352 -6 -375 l-9 -43 199 0 c109 0 207 3 218 6 15 4 29 27 48 77 32 85 34
102 10 92 -109 -42 -289 -83 -303 -69 -14 14 -15 683 -1 724 6 19 11 38 11 42
0 8 -122 8 -172 1z"/>
<path d="M5329 10378 c-119 -451 -215 -794 -234 -842 -13 -33 -22 -62 -20 -64
5 -5 104 12 168 29 l37 10 0 59 c0 63 25 199 39 213 6 6 263 66 289 67 9 0
124 -189 129 -212 3 -15 11 -28 17 -28 26 0 182 33 190 41 5 5 -17 36 -51 72
-55 59 -187 232 -438 574 -50 67 -95 122 -102 123 -7 0 -17 -19 -24 -42z m139
-339 c29 -45 52 -83 50 -85 -7 -6 -151 -35 -155 -30 -6 5 40 196 47 196 3 0
29 -37 58 -81z"/>
<path d="M7786 10298 c-43 -233 -211 -712 -273 -780 -15 -17 -14 -19 18 -32
70 -28 386 -136 400 -136 17 0 109 90 109 106 0 7 -41 14 -102 18 -84 5 -216
34 -237 52 -7 6 91 284 101 284 6 0 45 -21 86 -46 64 -40 77 -45 95 -35 38 21
89 72 84 84 -2 7 -57 29 -121 50 -64 21 -116 42 -116 47 0 11 88 261 94 267 9
9 117 -48 153 -81 22 -20 45 -36 50 -36 12 0 103 93 103 105 0 8 -410 155
-432 155 -4 0 -10 -10 -12 -22z"/>
<path d="M4580 10203 c-41 -19 -77 -36 -79 -39 -2 -2 4 -14 13 -26 76 -104
168 -291 150 -307 -8 -6 -169 -80 -282 -128 l-33 -14 -39 86 c-44 95 -80 204
-80 241 0 13 -4 24 -9 24 -13 0 -181 -78 -181 -84 0 -3 18 -29 40 -58 24 -32
82 -148 146 -293 122 -276 149 -343 159 -402 4 -24 11 -43 16 -43 5 0 47 18
95 40 92 43 91 39 43 100 -38 47 -143 270 -132 280 12 12 313 143 318 139 14
-15 105 -245 115 -291 7 -38 16 -58 26 -58 15 0 153 59 168 72 6 5 -1 19 -16
35 -15 16 -45 62 -67 103 -72 136 -232 512 -249 587 -12 52 -21 73 -32 72 -8
0 -49 -16 -90 -36z"/>
<path d="M8455 10048 c-28 -82 -62 -154 -175 -365 -72 -136 -154 -281 -181
-322 -28 -40 -49 -75 -47 -76 14 -13 138 -75 150 -75 9 0 21 21 32 57 15 45
116 254 132 272 8 9 13 -8 33 -129 22 -134 52 -257 77 -320 12 -29 28 -46 61
-65 25 -14 49 -25 54 -25 14 0 11 30 -16 174 -13 74 -27 170 -31 213 l-7 80
44 7 c87 14 124 30 170 77 61 60 77 124 54 213 -28 107 -80 159 -247 249 -95
52 -97 52 -103 35z m193 -228 c39 -77 20 -166 -45 -214 -29 -22 -112 -32 -168
-22 l-36 7 83 159 83 159 30 -23 c17 -12 40 -42 53 -66z"/>
<path d="M3800 9810 c-122 -44 -238 -148 -296 -265 -116 -236 -32 -500 197
-615 159 -81 370 -36 516 110 32 31 68 75 80 96 l22 39 -30 53 c-17 28 -36 52
-42 52 -7 0 -20 -21 -31 -46 -24 -58 -99 -135 -164 -168 -138 -70 -261 -48
-365 63 -187 200 -112 469 152 551 35 11 76 20 92 20 37 0 36 10 -3 76 -37 61
-45 63 -128 34z"/>
<path d="M9108 9587 c-61 -18 -111 -57 -144 -113 -48 -82 -44 -154 22 -321 19
-48 34 -103 34 -123 0 -110 -151 -147 -215 -53 -13 20 -30 61 -36 90 -7 29
-16 53 -20 53 -11 0 -95 -111 -103 -136 -5 -17 5 -32 50 -73 63 -58 128 -94
199 -112 96 -24 220 34 264 123 36 74 29 147 -24 279 -48 118 -54 162 -30 209
31 60 102 78 159 41 32 -22 83 -92 92 -128 4 -13 12 -23 19 -23 18 0 75 79 75
104 0 12 -20 46 -44 77 -74 94 -191 136 -298 106z"/>
<path d="M6120 9509 c-349 -22 -699 -91 -1025 -202 -620 -212 -1189 -582
-1622 -1055 -575 -629 -915 -1370 -1020 -2222 -22 -182 -25 -673 -5 -855 125
-1124 682 -2100 1582 -2767 1127 -836 2635 -1001 3930 -432 621 273 1190 732
1592 1284 402 552 642 1171 730 1880 18 143 18 738 0 880 -37 289 -91 537
-173 787 -203 619 -542 1157 -1020 1618 -785 758 -1870 1154 -2969 1084z m238
-596 c41 -25 53 -41 95 -126 26 -53 50 -97 55 -97 4 0 19 27 35 60 21 46 37
65 70 84 86 51 181 43 236 -19 35 -40 39 -63 14 -71 -10 -3 -36 -13 -58 -23
l-39 -18 39 -13 c83 -27 177 -112 191 -173 10 -48 -7 -54 -83 -24 -79 30 -113
40 -113 34 0 -2 18 -42 40 -89 61 -131 85 -251 61 -312 -5 -12 12 -65 51 -160
84 -207 108 -336 62 -336 -9 0 -34 16 -57 35 -23 20 -46 34 -51 32 -14 -5 -13
-72 3 -172 17 -104 9 -239 -24 -435 -44 -249 -30 -349 90 -679 112 -308 137
-470 96 -630 -22 -88 -83 -225 -122 -275 -21 -27 -25 -28 -82 -21 -71 8 -77 3
-77 -73 0 -57 -19 -106 -45 -116 -9 -3 -34 -6 -56 -6 -32 0 -41 5 -51 25 -10
23 -7 29 39 77 87 93 139 208 168 377 43 244 -21 726 -125 938 -22 45 -40 85
-40 88 0 4 -9 20 -21 36 -27 39 -98 79 -156 89 -36 6 -40 8 -17 9 49 2 144
-19 193 -42 26 -12 65 -41 88 -65 41 -42 63 -47 63 -16 0 8 -18 32 -40 54
-122 122 -343 143 -585 55 -72 -26 -176 -90 -183 -112 -7 -25 27 -24 60 1 70
53 240 117 308 116 19 -1 9 -8 -39 -30 -35 -17 -81 -35 -102 -42 -78 -23 -113
-81 -107 -172 4 -53 1 -67 -23 -112 -35 -62 -84 -242 -100 -370 -17 -139 -7
-406 20 -509 38 -146 113 -267 204 -331 l28 -19 -52 -58 c-45 -51 -55 -58 -78
-52 -63 15 -99 67 -147 209 -36 106 -64 124 -64 43 0 -70 -12 -75 -58 -26 -52
53 -65 82 -96 205 -39 155 -49 238 -43 369 6 144 26 225 103 418 76 193 88
250 88 432 0 116 -5 173 -22 252 -33 154 -29 229 24 411 8 27 -10 29 -60 5
-49 -23 -66 -7 -66 64 0 123 80 371 172 528 48 84 83 195 61 195 -26 0 -58
-22 -124 -87 -81 -79 -94 -77 -86 13 15 158 108 254 249 254 76 1 75 36 -3 80
-36 21 -57 25 -121 25 -100 0 -114 13 -66 58 57 53 122 80 199 81 58 1 75 -4
143 -38 49 -25 80 -36 87 -29 14 14 -13 91 -53 148 -39 55 -53 89 -42 106 11
19 91 3 142 -28z m-988 -1703 l0 -1070 156 0 157 0 -6 -107 c-4 -60 -14 -169
-22 -243 -8 -74 -15 -203 -15 -286 l0 -152 -42 -51 -43 -51 -92 0 -93 0 -2
-962 -3 -963 -85 -8 c-132 -11 -258 -55 -303 -105 -22 -24 -25 -75 -7 -97 41
-49 185 -82 318 -72 l72 5 0 -54 0 -54 -592 2 -593 3 -3 2668 -2 2667 600 0
600 0 0 -1070z m3148 -1597 l-3 -2668 -595 0 -595 0 -3 834 -2 835 37 90 c36
87 38 96 38 202 0 109 -1 113 -37 183 -27 52 -38 84 -38 116 l0 45 -37 1 c-34
1 -44 7 -93 67 l-55 67 -7 360 c-4 198 -8 369 -10 380 -3 19 3 20 100 23 l102
3 0 1064 0 1065 600 0 600 0 -2 -2667z m-1765 887 c32 -130 53 -252 68 -395
39 -370 -88 -703 -290 -762 -69 -20 -164 -13 -224 16 -60 29 -137 108 -175
179 -100 187 -118 538 -43 837 29 111 73 213 98 222 16 6 97 -49 159 -110 43
-41 60 -50 98 -54 42 -5 48 -3 73 27 16 18 51 56 79 84 43 44 52 60 65 115
l14 64 26 -59 c15 -32 38 -106 52 -164z m-362 -1201 c52 -8 76 -6 181 17 20 5
27 2 32 -14 11 -33 46 -72 66 -72 27 0 35 -103 21 -259 -17 -192 -14 -318 8
-368 23 -51 62 -78 112 -78 46 0 70 21 102 89 14 28 33 58 42 66 16 13 21 11
47 -20 41 -49 54 -76 78 -166 33 -123 37 -292 11 -499 -30 -230 -49 -304 -127
-496 -37 -90 -80 -198 -96 -239 -16 -41 -38 -88 -48 -105 -41 -66 -34 -139 15
-171 14 -9 62 -21 108 -26 155 -18 262 -39 295 -60 54 -33 81 -110 48 -137
-12 -10 -18 -8 -30 11 -23 35 -89 71 -104 56 -19 -19 -14 -32 22 -55 38 -24
86 -103 86 -141 0 -14 -12 -40 -26 -59 -21 -28 -32 -34 -57 -31 -28 3 -35 10
-60 63 -32 67 -82 125 -108 125 -30 0 -27 -24 7 -64 37 -43 64 -95 64 -123 0
-32 -39 -84 -75 -99 -85 -35 -262 -8 -403 63 -129 65 -132 69 -132 210 0 134
-14 172 -62 173 -39 0 -48 -27 -48 -138 0 -65 -5 -117 -13 -132 -20 -41 -72
-59 -223 -75 -134 -14 -143 -16 -239 -64 -108 -54 -178 -70 -216 -51 -35 18
-79 62 -79 78 0 7 23 36 51 63 43 42 50 53 47 81 -3 29 -6 33 -33 33 -24 0
-36 -10 -70 -59 -50 -70 -87 -94 -120 -76 -30 16 -45 51 -45 102 0 42 -3 38
90 116 31 27 33 32 22 56 -14 32 -42 34 -88 5 -36 -22 -54 -19 -54 11 0 43
126 102 225 103 33 1 98 -2 145 -7 80 -8 87 -7 119 15 52 36 74 81 74 149 -1
66 -26 129 -97 243 -69 111 -173 333 -198 422 -20 73 -22 103 -22 340 -1 236
1 268 21 347 25 96 61 182 116 272 40 66 28 72 100 -49 75 -126 146 -150 182
-62 15 36 17 76 16 281 -1 251 4 315 22 297 6 -6 26 -11 45 -11 30 0 44 10
101 69 41 43 72 67 81 64 8 -2 40 -9 71 -14z m878 -170 c67 -100 86 -160 79
-258 -9 -118 -81 -252 -177 -329 l-39 -32 -18 53 c-9 28 -34 77 -55 109 -29
43 -35 58 -24 62 31 12 56 85 66 199 5 62 14 157 19 212 5 55 10 114 10 130
l1 30 40 -45 c22 -25 66 -84 98 -131z m-1597 -210 c15 -25 43 -58 62 -72 l35
-27 -55 -93 c-31 -52 -67 -130 -82 -179 -15 -48 -31 -86 -37 -85 -20 6 -72 95
-94 163 -32 98 -40 267 -16 349 24 84 78 199 117 248 l33 41 5 -149 c5 -140 7
-153 32 -196z m136 -1609 c23 -38 42 -73 42 -77 0 -14 -84 -61 -146 -82 -33
-11 -94 -24 -135 -30 -41 -5 -129 -17 -196 -27 -328 -49 -507 71 -234 157 49
15 110 23 236 29 183 9 263 27 340 75 22 13 43 25 46 25 3 0 25 -31 47 -70z"/>
<path d="M6181 8093 c-31 -21 -133 -180 -167 -259 -28 -66 -27 -94 4 -94 13 0
32 28 70 103 51 102 116 197 139 205 7 2 27 -19 44 -47 32 -51 64 -67 75 -37
7 19 -21 74 -59 114 -35 36 -69 41 -106 15z"/>
<path d="M6498 8057 c-46 -28 -80 -70 -72 -91 10 -25 40 -19 72 14 48 47 84
42 147 -23 28 -29 66 -78 84 -110 33 -58 49 -68 71 -42 27 32 -108 223 -184
259 -46 22 -74 20 -118 -7z"/>
<path d="M6506 7827 c-31 -41 -62 -110 -71 -159 -4 -21 -10 -38 -14 -38 -3 0
-19 31 -36 68 -47 105 -120 171 -161 144 -14 -8 -82 -143 -118 -233 -80 -196
-100 -474 -42 -589 13 -27 12 -30 -15 -56 -32 -31 -36 -42 -15 -50 8 -3 25 6
39 20 17 17 37 26 56 26 17 0 66 12 108 26 74 25 84 26 203 19 69 -5 162 -9
207 -10 68 -1 86 -4 105 -22 23 -20 48 -21 48 -1 0 5 -13 22 -29 38 l-30 27
16 49 c12 37 16 93 17 234 l1 185 -42 96 c-76 173 -136 259 -184 259 -10 0
-29 -15 -43 -33z m87 -39 c31 -42 93 -164 123 -246 18 -46 24 -83 24 -142 l0
-80 -51 0 c-56 0 -185 48 -214 80 -11 12 -20 47 -25 92 -8 64 -5 84 17 158 28
95 67 170 88 170 8 0 25 -15 38 -32z m-297 -10 c36 -44 91 -163 111 -244 9
-35 14 -66 12 -67 -2 -1 -47 -34 -99 -73 -108 -81 -121 -89 -196 -114 l-54
-19 0 63 c0 78 40 235 80 319 51 103 91 167 105 167 7 0 26 -15 41 -32z m-36
-528 c0 -61 37 -94 95 -88 41 5 43 4 49 -25 3 -16 6 -42 6 -57 0 -27 -2 -28
-67 -35 -38 -4 -99 -18 -137 -31 -54 -19 -72 -21 -83 -12 -28 23 -45 73 -50
148 l-6 77 34 7 c19 3 57 17 84 30 70 34 75 33 75 -14z m477 -40 c-8 -101 -25
-158 -51 -175 -17 -10 -43 -11 -128 -2 -100 9 -108 12 -108 31 0 12 -3 38 -7
59 l-6 38 35 -6 c51 -10 92 14 112 65 9 22 16 47 16 55 0 12 15 15 71 15 l72
0 -6 -80z"/>
<path d="M10646 5434 c-12 -89 -12 -89 41 -86 40 3 262 -22 392 -44 33 -5 25
-11 -185 -136 -120 -72 -238 -139 -260 -149 -26 -12 -44 -27 -47 -41 -11 -46
-19 -138 -12 -138 3 0 27 16 51 36 44 36 45 37 112 30 198 -20 431 -63 493
-90 14 -6 18 3 24 60 4 37 9 73 12 80 4 11 -9 12 -60 7 -62 -5 -336 22 -364
36 -13 7 354 228 423 256 38 15 42 20 48 62 11 84 12 83 -41 77 -56 -7 -494
49 -565 71 -26 8 -49 15 -51 15 -2 0 -7 -21 -11 -46z"/>
<path d="M2050 5443 c-46 -20 -301 -36 -485 -31 l-140 4 3 -76 3 -76 67 17
c94 23 468 43 545 29 33 -6 60 -10 62 -8 6 6 -8 158 -14 157 -3 0 -22 -8 -41
-16z"/>
<path d="M2066 5232 c-31 -40 -47 -52 -75 -56 -162 -25 -306 -39 -414 -40
l-128 -1 7 -75 c3 -41 8 -76 9 -78 1 -2 31 7 66 18 56 19 357 66 365 57 5 -5
-335 -339 -368 -363 -26 -18 -27 -21 -19 -76 4 -32 10 -60 13 -63 3 -3 22 2
42 10 49 21 504 78 574 72 l54 -4 -6 30 c-3 16 -6 41 -6 56 0 46 -11 53 -61
36 -37 -12 -353 -55 -406 -55 -19 0 327 353 385 393 32 22 32 23 26 82 -4 33
-10 71 -13 84 -6 22 -9 21 -45 -27z"/>
<path d="M10519 4643 c-19 -93 -34 -172 -34 -178 0 -5 27 -11 60 -12 121 -5
492 -86 565 -123 22 -11 40 -19 40 -16 0 2 16 79 36 171 19 92 33 173 30 181
-3 7 -24 27 -48 44 l-43 32 -5 -130 c-3 -72 -8 -134 -13 -138 -8 -8 -198 24
-218 37 -10 6 -6 24 16 74 l28 66 -39 40 c-21 21 -42 35 -46 31 -4 -4 -15 -44
-24 -89 -9 -44 -20 -86 -24 -93 -6 -9 -32 -7 -113 11 -106 22 -107 23 -100 48
7 31 27 75 51 114 l17 29 -39 34 c-22 19 -45 34 -51 34 -8 0 -25 -63 -46 -167z"/>
<path d="M1887 4540 c-231 -59 -310 -302 -181 -560 55 -110 62 -117 106 -94
42 22 194 64 231 64 22 0 28 4 23 16 -3 8 -14 44 -23 80 -9 35 -20 64 -23 64
-4 0 -19 -14 -35 -30 -31 -32 -152 -77 -180 -67 -25 10 -57 89 -63 154 -12
153 106 274 268 275 156 1 249 -116 238 -303 -3 -43 -1 -79 4 -79 5 0 29 5 54
11 43 11 44 12 44 53 0 63 -27 175 -55 233 -33 66 -119 146 -182 168 -58 20
-174 28 -226 15z"/>
<path d="M10475 4428 c-20 -55 -35 -102 -35 -108 0 -4 17 -11 38 -14 31 -6
401 -133 410 -141 6 -5 -512 -174 -542 -177 -27 -3 -32 -10 -58 -80 -15 -43
-23 -78 -17 -78 5 0 32 11 60 25 l50 26 171 -62 c186 -66 312 -120 340 -146
11 -10 22 -13 27 -7 9 9 53 136 48 139 -1 2 -32 8 -69 14 -58 10 -296 87 -334
109 -15 8 361 138 456 157 l54 11 23 59 c13 33 23 60 23 61 0 1 -24 4 -52 7
-62 7 -510 168 -550 197 -32 23 -37 24 -43 8z"/>
<path d="M2320 4008 c-69 -47 -385 -197 -476 -227 l-82 -26 71 -155 c39 -85
76 -158 82 -162 14 -11 113 -10 119 1 3 4 -17 34 -45 66 -40 45 -99 140 -99
158 0 9 200 98 208 93 5 -3 15 -35 22 -70 10 -52 16 -65 33 -70 29 -8 97 -8
97 0 0 3 -18 44 -40 91 -22 47 -40 87 -40 89 0 7 193 93 200 89 14 -9 40 -97
40 -137 l0 -38 60 0 c36 0 60 4 60 11 0 21 -145 319 -155 318 -5 0 -30 -14
-55 -31z"/>
<path d="M10357 3750 c-95 -17 -186 -93 -236 -199 -23 -49 -26 -68 -26 -161 0
-95 3 -110 27 -157 37 -70 89 -120 157 -151 80 -37 202 -37 282 0 79 36 133
89 171 166 27 55 34 80 37 149 5 117 -15 171 -93 249 -88 88 -201 124 -319
104z m178 -144 c55 -25 119 -90 141 -142 52 -124 -52 -273 -203 -291 -184 -21
-354 166 -289 320 18 44 71 96 121 118 60 28 166 25 230 -5z"/>
<path d="M2517 3693 c-3 -5 -8 -27 -12 -50 -4 -24 -14 -51 -23 -62 -36 -41
-406 -253 -472 -271 -14 -3 -24 -11 -23 -16 5 -22 69 -124 79 -124 5 0 23 14
40 31 35 37 74 64 216 152 l107 66 -14 -37 c-78 -217 -150 -403 -166 -430 -25
-44 -24 -58 11 -115 l31 -48 25 30 c14 17 117 86 229 155 221 135 276 166 300
166 23 0 19 15 -19 75 l-35 54 -34 -32 c-33 -31 -355 -233 -361 -226 -5 7 179
492 198 525 l18 31 -42 66 c-43 69 -46 72 -53 60z"/>
<path d="M9894 3173 c-25 -35 -44 -65 -42 -66 1 -1 34 -17 73 -36 89 -42 398
-264 438 -313 17 -21 33 -38 37 -38 12 0 91 120 85 130 -3 6 -14 10 -23 10 -9
0 -36 11 -59 24 -82 47 -358 251 -410 302 l-53 52 -46 -65z"/>
<path d="M2830 3113 c-19 -8 -37 -17 -39 -19 -3 -3 17 -27 44 -54 30 -30 45
-53 40 -58 -40 -36 -301 -246 -341 -274 -116 -83 -189 -100 -276 -63 -31 13
-20 -19 20 -57 50 -48 72 -58 127 -58 78 0 147 43 395 249 74 62 151 121 170
131 68 37 69 31 -11 129 -41 50 -78 91 -84 90 -5 0 -26 -7 -45 -16z"/>
<path d="M9693 2883 c-187 -238 -174 -211 -133 -272 19 -28 37 -47 41 -43 3 4
16 34 28 67 12 34 32 74 45 89 l22 29 185 -146 c102 -80 204 -166 228 -192 24
-26 46 -43 50 -38 45 52 83 105 78 109 -3 3 -24 16 -47 28 -61 33 -420 316
-420 332 0 12 28 38 99 92 l23 18 -26 52 c-14 29 -28 52 -30 52 -2 0 -67 -80
-143 -177z"/>
<path d="M2940 2721 c-149 -48 -238 -185 -228 -350 7 -127 85 -239 206 -298
49 -23 70 -27 147 -28 84 0 94 2 153 34 75 41 125 94 161 170 22 47 26 70 26
141 0 74 -4 92 -28 139 -36 69 -103 133 -174 168 -47 23 -72 28 -147 30 -50 1
-102 -1 -116 -6z m250 -108 c87 -54 123 -182 84 -296 -32 -94 -149 -187 -236
-187 -77 0 -150 48 -191 125 -31 58 -30 164 2 225 73 142 230 203 341 133z"/>
<path d="M9443 2578 c-52 -53 -60 -66 -51 -82 5 -10 14 -68 19 -130 5 -61 11
-133 14 -161 l6 -50 -56 60 c-31 33 -72 84 -91 113 -19 28 -38 52 -42 52 -4 0
-32 -24 -61 -54 l-54 -54 40 -20 c63 -33 401 -390 418 -442 3 -11 10 -20 14
-20 9 0 116 109 110 113 -2 2 -24 18 -49 35 -25 17 -81 67 -124 111 -80 80
-80 80 -45 76 18 -3 92 -12 162 -20 70 -9 149 -24 175 -34 l48 -19 57 55 c32
31 57 57 55 58 -2 1 -106 16 -231 33 -126 16 -231 32 -233 35 -3 3 -10 65 -15
139 -9 120 -6 218 8 255 11 28 -15 11 -74 -49z"/>
<path d="M3525 2331 c-20 -40 -275 -352 -343 -420 l-54 -54 29 -24 c15 -13 40
-33 56 -44 l27 -20 18 32 c14 26 113 160 143 193 4 5 7 -56 7 -135 -1 -204 5
-237 50 -272 l37 -28 7 147 c3 81 9 162 13 181 l6 33 63 0 c49 0 71 5 97 23
53 36 79 82 79 142 0 78 -37 142 -123 215 -40 33 -78 60 -84 60 -7 0 -19 -13
-28 -29z m130 -190 c8 -50 -15 -96 -64 -125 -29 -17 -38 -18 -87 -7 -29 7 -56
16 -58 20 -3 4 31 52 76 106 l81 98 23 -26 c12 -14 25 -44 29 -66z"/>
<path d="M8962 2147 l-133 -111 84 -85 c105 -107 290 -337 319 -396 12 -25 25
-45 29 -45 4 0 68 49 141 108 144 117 139 109 117 195 -5 20 -13 37 -18 37 -4
0 -25 -26 -47 -57 -44 -64 -112 -133 -130 -133 -18 0 -147 158 -141 174 3 7
30 24 61 37 52 23 56 26 56 59 0 46 -10 80 -23 80 -5 0 -35 -21 -66 -47 -31
-26 -63 -53 -72 -60 -14 -12 -24 -4 -83 68 -36 44 -66 85 -66 89 0 15 52 50
102 67 53 19 56 28 37 96 -5 20 -15 37 -22 36 -7 0 -72 -51 -145 -112z"/>
<path d="M3881 1988 c-28 -14 -54 -38 -73 -67 -43 -66 -37 -136 20 -255 55
-115 55 -153 1 -181 -15 -8 -39 -15 -53 -15 -36 0 -84 45 -98 93 -6 23 -15 46
-18 50 -8 9 -62 -73 -74 -110 -8 -25 43 -70 125 -108 137 -64 276 8 286 148 4
47 -1 63 -47 157 -56 114 -59 143 -18 187 44 47 132 12 174 -68 8 -16 18 -29
22 -29 12 0 52 68 52 89 0 23 -80 98 -125 117 -50 21 -123 18 -174 -8z"/>
<path d="M8715 1974 c-43 -16 -99 -65 -120 -104 -38 -75 -23 -172 36 -231 45
-45 100 -59 229 -59 79 0 92 -3 116 -24 41 -34 38 -90 -7 -129 -30 -28 -36
-29 -96 -24 -34 2 -63 1 -63 -4 0 -14 64 -108 77 -113 22 -9 130 54 171 98 66
71 77 167 28 238 -47 69 -108 91 -222 82 -84 -8 -135 6 -164 43 -54 69 18 153
133 153 33 0 34 10 5 55 -26 40 -55 44 -123 19z"/>
<path d="M4250 1805 c-24 -25 -42 -46 -39 -48 2 -2 33 -10 69 -17 53 -10 111
-31 128 -46 9 -7 -226 -430 -260 -469 -29 -32 -35 -45 -25 -53 17 -13 118 -64
121 -60 1 2 8 22 15 45 8 31 225 453 247 481 6 8 52 -24 94 -64 l45 -43 48 36
c27 20 45 39 40 43 -7 7 -323 179 -409 223 l-31 16 -43 -44z"/>
<path d="M8400 1776 c-133 -49 -234 -126 -278 -211 -37 -72 -43 -215 -13 -296
47 -124 149 -199 284 -207 89 -5 164 17 256 75 55 35 151 127 151 144 0 5 -9
20 -21 32 -28 29 -90 141 -109 194 l-15 42 -72 -40 c-70 -39 -90 -59 -58 -59
22 0 82 -65 110 -120 20 -39 23 -54 14 -67 -16 -27 -78 -68 -132 -88 -163 -61
-352 101 -335 286 11 114 121 198 291 224 l38 6 -27 50 c-29 53 -32 54 -84 35z"/>
<path d="M4744 1581 c-32 -157 -162 -493 -225 -583 l-19 -26 131 -52 c226 -89
203 -85 249 -44 22 20 40 42 40 49 0 8 -25 14 -72 19 -69 6 -164 30 -181 46
-6 5 63 204 76 216 2 2 29 -14 61 -36 35 -23 65 -36 75 -32 20 7 81 55 81 63
0 3 -43 23 -95 43 -52 21 -95 39 -95 39 1 18 80 201 86 200 42 -12 68 -27 103
-58 l40 -37 28 20 c39 28 67 61 59 69 -4 4 -81 35 -171 69 l-165 62 -6 -27z"/>
<path d="M7684 1470 c-115 -24 -226 -115 -263 -215 -48 -129 -18 -260 83 -361
75 -75 135 -99 246 -98 144 0 251 62 310 178 33 65 35 75 35 165 0 115 -18
163 -90 240 -72 77 -207 115 -321 91z m142 -101 c135 -65 195 -239 129 -374
-35 -73 -85 -107 -165 -113 -72 -5 -115 9 -169 54 -111 95 -132 268 -46 380
55 72 164 95 251 53z"/>
<path d="M5100 1416 c0 -87 -125 -529 -162 -574 -7 -8 -7 -16 -2 -22 8 -7 120
-40 138 -40 3 0 6 16 6 35 0 42 24 162 48 242 l17 57 59 -130 c71 -156 86
-198 86 -235 0 -25 5 -30 51 -43 28 -9 67 -18 87 -22 31 -6 35 -5 26 7 -21 25
-185 413 -180 425 6 16 227 163 288 193 l47 22 33 -37 c18 -20 37 -43 41 -51
18 -30 -31 -474 -59 -542 -8 -19 -13 -35 -12 -37 2 -1 37 -5 78 -9 l75 -7 2
169 c1 92 6 192 10 222 l8 54 127 -194 c100 -154 158 -252 163 -276 0 0 30 -4
67 -8 l67 -7 -11 38 c-7 29 -5 99 12 288 12 138 27 269 33 291 6 22 11 45 12
50 0 6 -30 12 -67 15 l-67 5 6 -41 c4 -35 -24 -424 -32 -432 -5 -5 -296 445
-307 476 -11 29 -13 30 -107 37 -53 3 -128 15 -167 26 l-70 19 -40 -35 c-67
-61 -244 -186 -244 -172 0 26 49 168 73 211 l26 46 -52 15 c-116 32 -107 35
-107 -29z"/>
<path d="M7060 1339 c-83 -14 -82 -12 -60 -61 23 -53 80 -441 80 -544 0 -41 3
-74 8 -74 28 0 309 44 315 49 11 11 41 120 34 127 -3 4 -43 -10 -89 -29 -46
-19 -97 -38 -115 -42 -39 -8 -32 -33 -73 265 -21 147 -30 241 -26 272 5 36 3
48 -6 47 -7 -1 -38 -5 -68 -10z"/>
<path d="M6499 1263 c-97 -32 -195 -133 -220 -226 -16 -59 -6 -173 19 -229 31
-70 102 -141 175 -174 53 -25 74 -29 152 -29 76 0 99 4 145 26 79 37 125 81
162 157 30 61 33 74 33 162 0 84 -3 102 -28 151 -58 119 -163 179 -310 178
-46 0 -103 -7 -128 -16z m216 -93 c118 -63 170 -230 111 -355 -60 -131 -195
-169 -315 -89 -68 44 -121 145 -121 229 0 105 77 217 165 240 61 16 95 11 160
-25z"/>
</g>
</svg>
